<svg xmlns="http://www.w3.org/2000/svg" width="39" height="39" viewBox="0 0 39 39" fill="none"><path d="M17.9586 19.1063C17.6675 19.3965 17.6675 19.8679 17.9586 20.159C18.2497 20.4501 18.7208 20.4501 19.0113 20.159C19.3024 19.8679 19.3024 19.3965 19.0113 19.1063C18.7208 18.8152 18.2497 18.8152 17.9586 19.1063Z" fill="white"></path><path d="M29.796 2.17785C28.5185 3.1669 28.1704 3.67669 23.6396 8.16071L20.9234 7.71839L22.1698 6.47197C23.0428 5.59895 23.0431 4.18648 22.1698 3.31346C21.2971 2.44074 19.8837 2.44045 19.011 3.31346L15.4904 6.83403L3.17806 4.82947C2.3824 4.70035 1.56842 4.96353 0.999011 5.53294C-0.0958948 6.62784 0.0527099 8.43931 1.30175 9.34315L13.5714 18.2286L11.2743 20.526C10.487 21.3132 9.65851 22.3959 8.80701 23.7479L3.085 22.0653C2.24049 21.8172 1.3285 22.0496 0.70471 22.6722C-0.357334 23.7343 -0.196806 25.498 1.03682 26.3524L5.72761 29.5996C4.91101 31.4018 4.41459 32.7049 4.39162 32.7651C4.28751 33.0391 4.3541 33.3488 4.56116 33.5558C4.76938 33.7641 5.07939 33.8289 5.35188 33.7254C5.41208 33.7027 6.7152 33.206 8.51736 32.3894L11.7649 37.0805C12.6207 38.3161 14.3845 38.4726 15.4454 37.4117C16.0677 36.7885 16.3001 35.8765 16.0517 35.032L14.3694 29.3103C15.7222 28.4582 16.8043 27.6297 17.5913 26.843L19.8887 24.5456L28.7738 36.8153C29.6791 38.0663 31.4906 38.2117 32.5843 37.118C33.1535 36.5489 33.4166 35.7343 33.2878 34.9384L31.2833 22.6268L34.8035 19.1066C35.6765 18.2336 35.6765 16.8202 34.8035 15.9475C33.9308 15.0745 32.5183 15.0745 31.6453 15.9475L30.3986 17.1939L29.9566 14.4777C34.4453 9.94222 34.9469 9.60227 35.9365 8.32473C35.9377 8.32328 35.9392 8.32153 35.9403 8.31979C38.2366 5.34391 38.774 2.33837 37.2766 0.840403C35.7789 -0.656404 32.7731 -0.119566 29.796 2.17785ZM20.0637 4.36649C20.3546 4.07539 20.826 4.07539 21.1171 4.36649C21.4082 4.6576 21.4079 5.12784 21.1171 5.41894L19.1122 7.4235L17.3013 7.12862L20.0637 4.36649ZM2.17476 8.13687C1.66526 7.76841 1.60681 7.03062 2.05204 6.58568C2.28382 6.35361 2.61592 6.2463 2.93931 6.29894L22.3423 9.45802L14.6378 17.1622L2.17476 8.13687ZM1.75745 23.7255C1.99533 23.4879 2.34314 23.3989 2.66507 23.4938L8.01688 25.0676C7.46957 26.0261 6.91732 27.085 6.36652 28.2311L1.88453 25.1284C1.41429 24.8027 1.35264 24.13 1.75745 23.7255ZM14.392 36.3595C13.9907 36.7609 13.3172 36.7068 12.9889 36.2328L9.88621 31.7505C11.0332 31.1991 12.0923 30.6466 13.0497 30.1004L14.6232 35.4519C14.718 35.7741 14.6293 36.122 14.392 36.3595ZM32.6983 17.0002C32.9892 16.7094 33.4597 16.7091 33.7508 17.0002C34.0419 17.2913 34.0416 17.7624 33.7508 18.0535L30.9884 20.8157L30.6938 19.0048L32.6983 17.0002ZM31.8181 35.1771C31.8707 35.5014 31.7634 35.8335 31.5316 36.0652C31.0887 36.5082 30.3503 36.4541 29.9801 35.9422L20.9548 23.4795L28.6593 15.775L31.8181 35.1771ZM16.5385 25.79C15.7193 26.6095 14.5203 27.4942 12.9749 28.4198C10.966 29.6229 8.58861 30.7623 6.44417 31.6731C7.37971 29.4705 8.54063 27.0547 9.7696 25.0228C10.6685 23.5356 11.529 22.3767 12.3273 21.5788C30.5129 3.43677 29.4354 4.3726 30.5391 3.48999C31.7634 3.41176 32.8411 3.77527 33.5914 4.52557C34.3417 5.27586 34.7055 6.3539 34.6273 7.57793C33.7426 8.68417 34.6674 7.61718 16.5385 25.79ZM35.9013 5.62164C35.6635 4.80097 35.2409 4.06928 34.6445 3.47283C34.048 2.87667 33.3163 2.45383 32.4959 2.21594C33.5734 1.66951 35.3878 1.05764 36.2239 1.89314C36.884 2.55357 36.72 4.00734 35.9013 5.62164Z" fill="white"></path><path d="M22.1693 14.8946L20.0638 16.9998C19.773 17.2906 19.773 17.762 20.0638 18.0528C20.3546 18.3436 20.8257 18.3434 21.1168 18.0528L23.222 15.9474C23.5128 15.6568 23.5128 15.1854 23.222 14.8946C22.9312 14.6038 22.4601 14.6038 22.1693 14.8946Z" fill="white"></path><path d="M26.3809 10.6833L24.2745 12.7894C23.984 13.0802 23.984 13.5516 24.2745 13.8424C24.5656 14.1329 25.0367 14.1329 25.3276 13.8424L27.4336 11.7363C27.7244 11.4455 27.7244 10.9741 27.4336 10.6833C27.1428 10.3925 26.6717 10.3925 26.3809 10.6833Z" fill="white"></path></svg>