<svg xmlns="http://www.w3.org/2000/svg" width="45" height="33" viewBox="0 0 45 33" fill="none"><path d="M10.5 23.2501C8.01823 23.2501 6 25.2684 6 27.7501C6 30.2319 8.01823 32.2501 10.5 32.2501C12.9818 32.2501 15 30.2319 15 27.7501C15 25.2684 12.9817 23.2501 10.5 23.2501ZM10.5 30.7501C8.84546 30.7501 7.50003 29.4046 7.50003 27.7501C7.50003 26.0956 8.84555 24.7502 10.5 24.7502C12.1545 24.7502 13.5 26.0957 13.5 27.7501C13.5 29.4046 12.1545 30.7501 10.5 30.7501Z" fill="white"></path><path d="M36 23.2501C33.5182 23.2501 31.5 25.2684 31.5 27.7501C31.5 30.2319 33.5182 32.2501 36 32.2501C38.4818 32.2501 40.5 30.2319 40.5 27.7501C40.5 25.2684 38.4818 23.2501 36 23.2501ZM36 30.7501C34.3455 30.7501 33 29.4046 33 27.7501C33 26.0956 34.3455 24.7502 36 24.7502C37.6545 24.7502 39 26.0957 39 27.7501C39 29.4046 37.6545 30.7501 36 30.7501Z" fill="white"></path><path d="M44.8807 19.0943L38.1307 8.59427C37.9927 8.37973 37.755 8.25 37.4999 8.25H29.25C28.8352 8.25 28.5 8.58601 28.5 8.99997V27.7499C28.5 28.1647 28.8352 28.4999 29.25 28.4999H32.2499V26.9999H29.9999V9.75003H37.0904L43.4999 19.7205V27.0001H39.7499V28.5H44.2499C44.6647 28.5 44.9999 28.1648 44.9999 27.75V19.5C45 19.3567 44.9587 19.215 44.8807 19.0943Z" fill="white"></path><path d="M32.9999 18V12.75H39V11.25H32.25C31.8352 11.25 31.5 11.586 31.5 12V18.75C31.5 19.1647 31.8352 19.4999 32.25 19.4999H43.5V17.9999H32.9999V18Z" fill="white"></path><path d="M29.25 3.00012H0.749971C0.336006 3.00012 0 3.33613 0 3.75009V27.7501C0 28.1649 0.336006 28.5001 0.749971 28.5001H6.75V27.0001H1.50003V4.50006H28.5V27.0001H14.25V28.5001H29.25C29.6647 28.5001 30 28.1649 30 27.7501V3.75009C30 3.33613 29.6647 3.00012 29.25 3.00012Z" fill="white"></path><path d="M5.25 24H0.75V25.5H5.25V24Z" fill="white"></path><path d="M28.5 24H15.75V25.5H28.5V24Z" fill="white"></path><path d="M44.2492 24H41.25V25.4996H44.2492V24Z" fill="white"></path><path d="M29.25 6H3V7.50003H29.25V6Z" fill="white"></path><path d="M11.2496 27.0001H9.75V28.4998H11.2496V27.0001Z" fill="white"></path><path d="M36.7496 27.0001H35.25V28.4998H36.7496V27.0001Z" fill="white"></path><path d="M13.5 0H3V1.50003H13.5V0Z" fill="white"></path><path d="M1.49964 0H0V1.49964H1.49964V0Z" fill="white"></path></svg>