<svg xmlns="http://www.w3.org/2000/svg" width="54" height="40" viewBox="0 0 54 40" fill="none"><path d="M11.9091 15.1956C12.7172 15.5728 13.593 15.7834 14.4842 15.8147C15.0994 15.8277 15.7048 15.6592 16.2248 15.3302C16.5887 15.0727 16.897 14.7446 17.1313 14.3653C17.3656 13.9861 17.5211 13.5636 17.5886 13.123C17.8833 12.9564 18.1415 12.7324 18.348 12.4642C18.5545 12.1961 18.7051 11.8892 18.7909 11.5618C18.8288 11.3046 18.8037 11.042 18.7178 10.7967C18.6318 10.5513 18.4876 10.3305 18.2974 10.1531C17.8847 9.74041 17.6604 8.17024 17.6604 7.20123C17.6624 7.16537 17.6624 7.12942 17.6604 7.09356C17.2118 3.72892 15.0136 1.80884 11.613 1.80884C8.21251 1.80884 6.17578 3.99809 6.17578 7.98182C6.17578 10.9965 8.26634 13.6254 11.9091 15.1956ZM11.613 3.60331C14.0984 3.60331 15.525 4.83252 15.848 7.25506C15.848 7.86518 15.9377 10.2159 16.9336 11.3465C16.7599 11.52 16.5601 11.6653 16.3415 11.7771C16.1949 11.851 16.0713 11.9637 15.9843 12.1029C15.8973 12.2421 15.8501 12.4025 15.848 12.5667C15.8341 12.8096 15.7694 13.0469 15.6581 13.2632C15.5469 13.4796 15.3915 13.6702 15.202 13.8228C14.6906 14.1548 13.7574 14.0471 12.5731 13.5447C10.8414 12.8 7.92539 11.0863 7.92539 7.97285C7.97025 4.05193 10.0518 3.60331 11.613 3.60331Z" fill="#FF131D"></path><path d="M52.8851 26.8239C51.9879 19.8613 50.1934 16.4249 46.8198 15.2675C45.5724 14.9894 44.2677 15.1401 43.1165 15.6953C41.9654 16.2505 41.0352 17.1777 40.4763 18.327C39.5039 19.6408 38.2175 20.6897 36.7348 21.3776V20.597C36.7303 20.5176 36.7152 20.4392 36.69 20.3638V20.2651C36.6562 20.1972 36.614 20.1339 36.5644 20.0766L36.5105 20.0049L33.5227 17.3131C33.3582 17.1636 33.1439 17.0804 32.9216 17.0799H20.8807C20.6583 17.0804 20.4441 17.1636 20.2795 17.3131L17.2917 20.0049L17.2379 20.0766C17.1882 20.1339 17.146 20.1972 17.1123 20.2651V20.3638C17.087 20.4392 17.072 20.5176 17.0674 20.597C17.0674 20.597 17.0674 20.597 17.0674 20.6509V21.3776C15.5878 20.6973 14.3016 19.6579 13.3259 18.3539C12.76 17.1946 11.8168 16.2621 10.6511 15.7094C9.48538 15.1568 8.16645 15.0167 6.91069 15.3123C3.53708 16.4249 1.74261 19.8613 0.845372 26.8239C-0.114671 34.4773 0.908179 38.3713 4.1472 39.448C5.40096 39.8257 6.70495 40.0103 8.01429 39.9953C9.69734 40.0437 11.3667 39.6803 12.8773 38.9366C13.4406 38.6562 13.9385 38.2604 14.3389 37.7751C14.7392 37.2897 15.033 36.7255 15.2012 36.1192C15.5109 34.8145 15.4138 33.4462 14.923 32.1983C14.7563 31.6739 14.6185 31.1407 14.5103 30.6012C15.2976 31.14 16.129 31.6112 16.9956 32.0099V35.0067C16.9956 35.2446 17.0902 35.4728 17.2584 35.6411C17.4267 35.8094 17.6549 35.9039 17.8929 35.9039H35.8376C36.0756 35.9039 36.3038 35.8094 36.472 35.6411C36.6403 35.4728 36.7348 35.2446 36.7348 35.0067V32.0099C37.6138 31.613 38.4573 31.1417 39.2561 30.6012C39.1479 31.1407 39.0101 31.6739 38.8433 32.1983C38.3405 33.4425 38.231 34.8109 38.5293 36.1192C38.6944 36.7231 38.9841 37.2857 39.3796 37.7709C39.7752 38.2562 40.268 38.6532 40.8262 38.9366C42.3422 39.6832 44.0181 40.0467 45.7072 39.9953C47.0165 40.0103 48.3205 39.8257 49.5743 39.448C52.8133 38.3713 53.8362 34.4773 52.8851 26.8239ZM38.1166 22.7414C37.7218 23.266 37.2568 23.734 36.7348 24.1321V23.2349C37.2146 23.1303 37.679 22.9644 38.1166 22.7414ZM38.8613 28.6722C36.7119 30.3595 34.0823 31.3209 31.3514 31.4177C30.8755 31.4177 30.4191 31.2286 30.0825 30.8921C29.746 30.5556 29.5569 30.0992 29.5569 29.6232C29.5569 29.1473 29.746 28.6909 30.0825 28.3543C30.4191 28.0178 30.8755 27.8288 31.3514 27.8288H31.4591C33.5119 27.6488 35.497 27.0045 37.2642 25.9446C37.3098 25.9727 37.3579 25.9968 37.4078 26.0163C38.0316 26.1867 38.5654 26.5918 38.8972 27.1469C39.0795 27.6421 39.0634 28.1885 38.8523 28.6722H38.8613ZM33.4779 19.7536H30.203L29.9069 18.8564H32.5089L33.4779 19.7536ZM25.0708 21.5481H28.6597V23.6117L27.3049 22.8581C27.1685 22.7793 27.0138 22.7379 26.8563 22.7379C26.6988 22.7379 26.544 22.7793 26.4076 22.8581L25.0708 23.6117V21.5481ZM28.0137 18.8564L28.3098 19.7536H25.4207L25.7168 18.8564H28.0137ZM21.2306 18.8564H23.8326L23.5365 19.7536H20.2347L21.2306 18.8564ZM16.9956 24.1321C16.4736 23.734 16.0087 23.266 15.6139 22.7414C16.0514 22.9644 16.5158 23.1303 16.9956 23.2349V24.1321ZM12.3031 26.3573C12.1508 26.1741 11.9319 26.0588 11.6947 26.037C11.4574 26.0151 11.2212 26.0884 11.038 26.2407C10.8547 26.3929 10.7395 26.6118 10.7176 26.849C10.6958 27.0863 10.769 27.3225 10.9213 27.5058C11.4125 28.072 11.9432 28.6027 12.5094 29.0939C12.5585 30.3157 12.7821 31.5243 13.1734 32.6828C13.5635 33.6193 13.6544 34.6535 13.4336 35.6437C13.3317 36.0088 13.1524 36.3476 12.9077 36.6372C12.6631 36.9267 12.3589 37.1601 12.016 37.3215C9.93438 38.461 6.43516 38.2726 4.71246 37.6984C2.50526 37.0075 1.82336 33.5083 2.63984 27.0392C3.60886 19.2871 5.60073 17.6182 7.35034 17.035C7.61567 16.9782 7.88651 16.9511 8.15785 16.9543C8.91726 16.9396 9.66391 17.1509 10.3029 17.5615C10.942 17.9721 11.4445 18.5633 11.7468 19.2602C11.9352 19.637 12.1147 20.0138 12.2851 20.3817C13.7835 23.6118 15.3627 26.9315 22.2714 27.8288H22.379C22.855 27.8288 23.3114 28.0178 23.6479 28.3543C23.9845 28.6909 24.1735 29.1473 24.1735 29.6232C24.1735 30.0992 23.9845 30.5556 23.6479 30.8921C23.3114 31.2286 22.855 31.4177 22.379 31.4177C16.6098 31.4177 12.339 26.4111 12.3031 26.3573ZM34.9404 34.1094H18.7901V32.6738C19.9541 33.0261 21.163 33.2074 22.379 33.2122C23.3309 33.2205 24.2471 32.8504 24.926 32.1832C25.605 31.516 25.9911 30.6065 25.9994 29.6546C26.0077 28.7028 25.6376 27.7866 24.9704 27.1077C24.3033 26.4287 23.3937 26.0426 22.4419 26.0343C21.1905 25.8966 19.9627 25.5949 18.7901 25.1371V21.5481H23.2763V25.1371C23.2766 25.2935 23.3177 25.4472 23.3958 25.5829C23.4738 25.7185 23.586 25.8314 23.7211 25.9103C23.8562 25.9892 24.0097 26.0314 24.1662 26.0327C24.3226 26.034 24.4767 25.9943 24.6132 25.9176L26.8652 24.6705L29.1173 25.9266C29.2544 26.0037 29.4093 26.0434 29.5666 26.0417C29.7238 26.04 29.8778 25.997 30.0132 25.9171C30.1486 25.8371 30.2607 25.7229 30.338 25.586C30.4154 25.4491 30.4555 25.2943 30.4542 25.1371V21.5481H34.9404V25.1371C33.7677 25.5949 32.5399 25.8966 31.2886 26.0343C30.3368 26.0426 29.4272 26.4287 28.76 27.1077C28.0929 27.7866 27.7227 28.7028 27.7311 29.6546C27.7394 30.6065 28.1255 31.516 28.8044 32.1832C29.4834 32.8504 30.3996 33.2205 31.3514 33.2122C32.5675 33.2074 33.7764 33.0261 34.9404 32.6738V34.1094ZM49.009 37.7432C47.2863 38.3175 43.7871 38.5059 41.7055 37.3664C41.3692 37.2009 41.0721 36.9657 40.8338 36.6764C40.5956 36.3871 40.4217 36.0503 40.3238 35.6886C40.103 34.6984 40.1939 33.6642 40.584 32.7277C40.9753 31.5691 41.1989 30.3606 41.2479 29.1387C41.8142 28.6476 42.3449 28.1169 42.836 27.5506C42.9883 27.3674 43.0616 27.1312 43.0397 26.8939C43.0179 26.6567 42.9026 26.4378 42.7194 26.2855C42.5362 26.1332 42.2999 26.0599 42.0627 26.0818C41.8254 26.1037 41.6066 26.2189 41.4543 26.4022C41.4543 26.4022 41.2031 26.6982 40.7724 27.111C40.723 26.8761 40.6478 26.6474 40.5481 26.4291C40.1811 25.6825 39.579 25.0773 38.8344 24.7064C39.9651 23.4407 40.875 21.9939 41.5261 20.4266C41.7055 20.0497 41.876 19.6819 42.0644 19.305C42.4256 18.5034 43.0457 17.8465 43.8251 17.4397C44.6045 17.0329 45.4981 16.8998 46.3622 17.0619C48.1567 17.672 50.1665 19.3319 51.1355 27.093C51.9071 33.5083 51.2252 37.0075 49.009 37.7432Z" fill="#FF131D"></path><path d="M32.7423 7.99079C33.7403 8.46507 34.811 8.76836 35.9095 8.88803C35.8592 9.32612 35.7021 9.74514 35.4519 10.1083C35.2517 10.2883 35.0999 10.5157 35.0105 10.7697C34.9212 11.0237 34.8971 11.2961 34.9405 11.5618C35.0242 11.8877 35.172 12.1936 35.3754 12.4617C35.5788 12.7298 35.8336 12.9546 36.1249 13.123C36.1923 13.5636 36.3479 13.9861 36.5822 14.3653C36.8165 14.7445 37.1248 15.0727 37.4887 15.3302C38.0087 15.6592 38.6141 15.8277 39.2293 15.8147C40.1205 15.7834 40.9963 15.5728 41.8044 15.1956C45.4471 13.6254 47.5377 10.9965 47.5377 8.01771C47.5526 7.08083 47.4163 6.14768 47.1339 5.25422L47.2237 5.17347C47.3328 5.0636 47.4116 4.92736 47.4525 4.77799C47.4934 4.62863 47.4949 4.47122 47.457 4.32109C47.107 2.80476 45.3215 0.0143589 41.2212 0.0143589C40.3651 -0.0480276 39.5065 0.0934725 38.7157 0.427245C37.925 0.761018 37.2246 1.27755 36.6722 1.93445C36.1631 2.67625 35.8086 3.51296 35.6298 4.39469C35.451 5.27642 35.4515 6.18512 35.6314 7.06664C34.9094 6.94115 34.2086 6.71462 33.5498 6.39371C33.4439 6.33693 33.3277 6.30199 33.208 6.29097C33.0884 6.27995 32.9677 6.29308 32.8533 6.32957C32.7388 6.36606 32.6328 6.42517 32.5416 6.5034C32.4504 6.58163 32.3758 6.67738 32.3223 6.78497C32.2688 6.89255 32.2375 7.00979 32.2302 7.12972C32.2229 7.24965 32.2397 7.36983 32.2797 7.48314C32.3197 7.59644 32.3821 7.70055 32.4631 7.78929C32.5441 7.87804 32.6421 7.94961 32.7512 7.99976L32.7423 7.99079ZM45.7612 7.99079C45.7612 11.0952 42.8541 12.8179 41.1135 13.5626C39.9291 14.0741 38.996 14.1728 38.4936 13.8497C38.308 13.6922 38.1578 13.4973 38.0527 13.2778C37.9475 13.0582 37.8899 12.819 37.8834 12.5757C37.8813 12.4115 37.8341 12.2511 37.7471 12.1119C37.6601 11.9726 37.5366 11.86 37.39 11.7861C37.1717 11.6737 36.9719 11.5285 36.7978 11.3554C37.3141 10.6526 37.6247 9.82007 37.695 8.95083C40.49 8.77049 43.1994 7.91456 45.5907 6.45652C45.6965 6.95828 45.7536 7.46908 45.7612 7.98182V7.99079ZM38.0808 3.05599C38.4702 2.61691 38.9572 2.27533 39.5026 2.05873C40.048 1.84212 40.6366 1.75653 41.2212 1.80883C42.1037 1.74281 42.986 1.93929 43.7571 2.37355C44.5283 2.8078 45.1537 3.46043 45.5548 4.24932C42.9439 6.51932 39.0498 7.03075 37.4797 7.15636C37.2949 6.46507 37.2528 5.74337 37.3562 5.0353C37.4596 4.32724 37.7061 3.64766 38.0808 3.03805V3.05599Z" fill="#FF131D"></path></svg>