<svg xmlns="http://www.w3.org/2000/svg" width="49" height="36" viewBox="0 0 49 36" fill="none"><path d="M27.384 21.9995H15.502C14.1764 21.9979 12.9055 21.4706 11.9682 20.5333C11.0308 19.596 10.5035 18.3251 10.502 16.9995V2.99951C10.502 2.7343 10.6073 2.47994 10.7948 2.29241C10.9824 2.10487 11.2367 1.99951 11.502 1.99951H18.502C19.5514 1.99933 20.5742 2.32933 21.4257 2.94278C22.2771 3.55623 22.9139 4.42202 23.246 5.41751L28.334 20.6815C28.384 20.832 28.3975 20.9923 28.3736 21.1491C28.3496 21.3059 28.2887 21.4547 28.1959 21.5834C28.1032 21.7121 27.9812 21.8169 27.8401 21.8892C27.6989 21.9616 27.5426 21.9994 27.384 21.9995ZM12.502 3.99951V16.9995C12.502 18.6535 13.848 19.9995 15.502 19.9995H25.998L21.348 6.05151C21.1495 5.45373 20.7677 4.9337 20.2568 4.56532C19.7458 4.19694 19.1318 3.99896 18.502 3.99951H12.502Z" fill="#FF131D"></path><path d="M31.5 32H27.5C27.2348 32 26.9804 31.8946 26.7929 31.7071C26.6054 31.5196 26.5 31.2652 26.5 31C26.5 30.7348 26.6054 30.4804 26.7929 30.2929C26.9804 30.1054 27.2348 30 27.5 30H30.5V22H15.5C14.1744 21.9984 12.9036 21.4711 11.9662 20.5338C11.0289 19.5964 10.5016 18.3256 10.5 17V16H5.5C3.846 16 2.5 17.346 2.5 19V29C2.5 29.2652 2.60536 29.5196 2.79289 29.7071C2.98043 29.8946 3.23478 30 3.5 30H5.5C5.76522 30 6.01957 30.1054 6.20711 30.2929C6.39464 30.4804 6.5 30.7348 6.5 31C6.5 31.2652 6.39464 31.5196 6.20711 31.7071C6.01957 31.8946 5.76522 32 5.5 32H3.5C1.846 32 0.5 30.654 0.5 29V19C0.5 16.244 2.742 14 5.5 14H11.5C11.7652 14 12.0196 14.1054 12.2071 14.2929C12.3946 14.4804 12.5 14.7348 12.5 15V17C12.5 18.654 13.846 20 15.5 20H31.5C31.7652 20 32.0196 20.1054 32.2071 20.2929C32.3946 20.4804 32.5 20.7348 32.5 21V31C32.5 31.2652 32.3946 31.5196 32.2071 31.7071C32.0196 31.8946 31.7652 32 31.5 32Z" fill="#FF131D"></path><path d="M19.498 32H13.498C13.2328 32 12.9785 31.8946 12.7909 31.7071C12.6034 31.5196 12.498 31.2652 12.498 31C12.498 30.7348 12.6034 30.4804 12.7909 30.2929C12.9785 30.1054 13.2328 30 13.498 30H19.498C19.7633 30 20.0176 30.1054 20.2052 30.2929C20.3927 30.4804 20.498 30.7348 20.498 31C20.498 31.2652 20.3927 31.5196 20.2052 31.7071C20.0176 31.8946 19.7633 32 19.498 32ZM47.498 32H31.498C31.2328 32 30.9785 31.8946 30.7909 31.7071C30.6034 31.5196 30.498 31.2652 30.498 31V1C30.498 0.734784 30.6034 0.48043 30.7909 0.292893C30.9785 0.105357 31.2328 0 31.498 0C31.7633 0 32.0176 0.105357 32.2052 0.292893C32.3927 0.48043 32.498 0.734784 32.498 1V30H47.498C47.7633 30 48.0176 30.1054 48.2052 30.2929C48.3927 30.4804 48.498 30.7348 48.498 31C48.498 31.2652 48.3927 31.5196 48.2052 31.7071C48.0176 31.8946 47.7633 32 47.498 32Z" fill="#FF131D"></path><path d="M9.5 36C6.742 36 4.5 33.756 4.5 31C4.5 28.244 6.742 26 9.5 26C12.258 26 14.5 28.244 14.5 31C14.5 33.756 12.258 36 9.5 36ZM9.5 28C7.846 28 6.5 29.346 6.5 31C6.5 32.654 7.846 34 9.5 34C11.154 34 12.5 32.654 12.5 31C12.5 29.346 11.154 28 9.5 28ZM23.5 36C20.742 36 18.5 33.756 18.5 31C18.5 28.244 20.742 26 23.5 26C26.258 26 28.5 28.244 28.5 31C28.5 33.756 26.258 36 23.5 36ZM23.5 28C21.846 28 20.5 29.346 20.5 31C20.5 32.654 21.846 34 23.5 34C25.154 34 26.5 32.654 26.5 31C26.5 29.346 25.154 28 23.5 28ZM47.5 32H35.5C35.2348 32 34.9804 31.8946 34.7929 31.7071C34.6054 31.5196 34.5 31.2652 34.5 31V19C34.5 18.7348 34.6054 18.4804 34.7929 18.2929C34.9804 18.1054 35.2348 18 35.5 18H47.5C47.7652 18 48.0196 18.1054 48.2071 18.2929C48.3946 18.4804 48.5 18.7348 48.5 19V31C48.5 31.2652 48.3946 31.5196 48.2071 31.7071C48.0196 31.8946 47.7652 32 47.5 32ZM36.5 30H46.5V20H36.5V30Z" fill="#FF131D"></path><path d="M47.4961 19.9998H35.4961C35.2309 19.9998 34.9765 19.8944 34.789 19.7069C34.6014 19.5193 34.4961 19.265 34.4961 18.9998V6.99976C34.4961 6.73454 34.6014 6.48019 34.789 6.29265C34.9765 6.10511 35.2309 5.99976 35.4961 5.99976H47.4961C47.7613 5.99976 48.0157 6.10511 48.2032 6.29265C48.3907 6.48019 48.4961 6.73454 48.4961 6.99976V18.9998C48.4961 19.265 48.3907 19.5193 48.2032 19.7069C48.0157 19.8944 47.7613 19.9998 47.4961 19.9998ZM36.4961 17.9998H46.4961V7.99976H36.4961V17.9998Z" fill="#FF131D"></path><path d="M41.5 24.9998C41.2348 24.9998 40.9804 24.8944 40.7929 24.7069C40.6054 24.5193 40.5 24.265 40.5 23.9998V18.9998C40.5 18.7345 40.6054 18.4802 40.7929 18.2926C40.9804 18.1051 41.2348 17.9998 41.5 17.9998C41.7652 17.9998 42.0196 18.1051 42.2071 18.2926C42.3946 18.4802 42.5 18.7345 42.5 18.9998V23.9998C42.5 24.265 42.3946 24.5193 42.2071 24.7069C42.0196 24.8944 41.7652 24.9998 41.5 24.9998ZM41.5 12.9998C41.2348 12.9998 40.9804 12.8944 40.7929 12.7069C40.6054 12.5193 40.5 12.265 40.5 11.9998V6.99976C40.5 6.73454 40.6054 6.48019 40.7929 6.29265C40.9804 6.10511 41.2348 5.99976 41.5 5.99976C41.7652 5.99976 42.0196 6.10511 42.2071 6.29265C42.3946 6.48019 42.5 6.73454 42.5 6.99976V11.9998C42.5 12.265 42.3946 12.5193 42.2071 12.7069C42.0196 12.8944 41.7652 12.9998 41.5 12.9998Z" fill="#FF131D"></path></svg>