<svg xmlns="http://www.w3.org/2000/svg" width="41" height="40" viewBox="0 0 41 40" fill="#FF131D"><path d="M29.6713 40.0001C23.6979 40.0001 18.8379 35.1401 18.8379 29.1667C18.8379 23.1933 23.6979 18.3333 29.6713 18.3333C35.6447 18.3333 40.5047 23.1933 40.5047 29.1667C40.5047 35.1401 35.6447 40.0001 29.6713 40.0001ZM29.6713 19.9999C24.6163 19.9999 20.5046 24.1133 20.5046 29.1667C20.5046 34.2201 24.6163 38.3334 29.6713 38.3334C34.7264 38.3334 38.8381 34.2201 38.8381 29.1667C38.8381 24.1133 34.7264 19.9999 29.6713 19.9999Z" fill=""></path><path d="M28.0002 33.3336C27.7793 33.3331 27.5673 33.2457 27.4102 33.0902L24.0769 29.7569C23.9251 29.5997 23.8411 29.3892 23.843 29.1707C23.8449 28.9522 23.9325 28.7432 24.087 28.5887C24.2415 28.4342 24.4505 28.3465 24.669 28.3446C24.8875 28.3427 25.098 28.4267 25.2552 28.5785L27.9586 31.2819L33.2053 25.2852C33.2771 25.2021 33.3646 25.1341 33.4628 25.085C33.561 25.0358 33.668 25.0066 33.7775 24.9989C33.887 24.9913 33.997 25.0053 34.1011 25.0403C34.2052 25.0753 34.3013 25.1305 34.384 25.2027C34.4667 25.275 34.5343 25.3629 34.5829 25.4613C34.6315 25.5598 34.6601 25.6669 34.6672 25.7764C34.6743 25.886 34.6597 25.9959 34.6242 26.0998C34.5887 26.2037 34.533 26.2995 34.4603 26.3819L28.6269 33.0486C28.5515 33.1344 28.4594 33.2039 28.3563 33.2529C28.2531 33.3019 28.141 33.3294 28.0269 33.3336H28.0002ZM16.3335 35.0003H4.6667C3.56203 34.9989 2.50298 34.5595 1.72186 33.7784C0.940739 32.9973 0.501323 31.9382 0.5 30.8336L0.5 9.1667C0.5 6.86835 2.37002 5 4.6667 5H8.00007C8.22108 5 8.43304 5.0878 8.58933 5.24408C8.74561 5.40036 8.83341 5.61232 8.83341 5.83334C8.83341 6.05436 8.74561 6.26632 8.58933 6.4226C8.43304 6.57888 8.22108 6.66668 8.00007 6.66668H4.6667C3.28836 6.66668 2.16668 7.78836 2.16668 9.1667V30.8336C2.16668 32.2119 3.28836 33.3336 4.6667 33.3336H16.3335C16.5545 33.3336 16.7665 33.4214 16.9227 33.5777C17.079 33.7339 17.1668 33.9459 17.1668 34.1669C17.1668 34.3879 17.079 34.5999 16.9227 34.7562C16.7665 34.9125 16.5545 35.0003 16.3335 35.0003ZM28.0002 15.0001C27.7792 15.0001 27.5673 14.9123 27.411 14.756C27.2547 14.5997 27.1669 14.3878 27.1669 14.1667V9.1667C27.1669 7.78836 26.0452 6.66668 24.6669 6.66668H21.3335C21.1125 6.66668 20.9005 6.57888 20.7443 6.4226C20.588 6.26632 20.5002 6.05436 20.5002 5.83334C20.5002 5.61232 20.588 5.40036 20.7443 5.24408C20.9005 5.0878 21.1125 5 21.3335 5H24.6669C26.9636 5 28.8336 6.86835 28.8336 9.1667V14.1667C28.8336 14.3878 28.7458 14.5997 28.5895 14.756C28.4332 14.9123 28.2213 15.0001 28.0002 15.0001Z" fill=""></path><path d="M19.6668 10.0001H9.6667C8.28836 10.0001 7.16668 8.87841 7.16668 7.50007V4.1667C7.16668 3.94569 7.25448 3.73372 7.41076 3.57744C7.56704 3.42116 7.77901 3.33336 8.00002 3.33336H10.5834C10.9717 1.43335 12.6534 0 14.6667 0C16.6801 0 18.3618 1.43335 18.7501 3.33336H21.3335C21.5545 3.33336 21.7664 3.42116 21.9227 3.57744C22.079 3.73372 22.1668 3.94569 22.1668 4.1667V7.50007C22.1668 8.87841 21.0451 10.0001 19.6668 10.0001ZM8.83336 5.00004V7.50007C8.83336 7.72108 8.92116 7.93304 9.07744 8.08933C9.23372 8.24561 9.44569 8.33341 9.6667 8.33341H19.6668C19.8878 8.33341 20.0998 8.24561 20.256 8.08933C20.4123 7.93304 20.5001 7.72108 20.5001 7.50007V5.00004H18.0001C17.7791 5.00004 17.5671 4.91225 17.4108 4.75596C17.2546 4.59968 17.1668 4.38772 17.1668 4.1667C17.1668 2.78836 16.0451 1.66668 14.6667 1.66668C13.2884 1.66668 12.1667 2.78836 12.1667 4.1667C12.1667 4.38772 12.0789 4.59968 11.9226 4.75596C11.7664 4.91225 11.5544 5.00004 11.3334 5.00004H8.83336ZM23.0002 15.0001H6.33334C6.11232 15.0001 5.90036 14.9123 5.74408 14.7561C5.5878 14.5998 5.5 14.3878 5.5 14.1668C5.5 13.9458 5.5878 13.7338 5.74408 13.5775C5.90036 13.4212 6.11232 13.3334 6.33334 13.3334H23.0002C23.2212 13.3334 23.4331 13.4212 23.5894 13.5775C23.7457 13.7338 23.8335 13.9458 23.8335 14.1668C23.8335 14.3878 23.7457 14.5998 23.5894 14.7561C23.4331 14.9123 23.2212 15.0001 23.0002 15.0001ZM18.0001 20.0002H6.33334C6.11232 20.0002 5.90036 19.9124 5.74408 19.7561C5.5878 19.5998 5.5 19.3878 5.5 19.1668C5.5 18.9458 5.5878 18.7339 5.74408 18.5776C5.90036 18.4213 6.11232 18.3335 6.33334 18.3335H18.0001C18.2211 18.3335 18.4331 18.4213 18.5894 18.5776C18.7457 18.7339 18.8334 18.9458 18.8334 19.1668C18.8334 19.3878 18.7457 19.5998 18.5894 19.7561C18.4331 19.9124 18.2211 20.0002 18.0001 20.0002ZM14.6667 25.0002H6.33334C6.11232 25.0002 5.90036 24.9124 5.74408 24.7561C5.5878 24.5999 5.5 24.3879 5.5 24.1669C5.5 23.9459 5.5878 23.7339 5.74408 23.5776C5.90036 23.4213 6.11232 23.3335 6.33334 23.3335H14.6667C14.8878 23.3335 15.0997 23.4213 15.256 23.5776C15.4123 23.7339 15.5001 23.9459 15.5001 24.1669C15.5001 24.3879 15.4123 24.5999 15.256 24.7561C15.0997 24.9124 14.8878 25.0002 14.6667 25.0002Z" fill=""></path></svg>