<svg xmlns="http://www.w3.org/2000/svg" width="52" height="35" viewBox="0 0 52 35" fill="none"><path d="M47.2407 14.5499L43.33 4.16687C43.2019 3.83386 42.8859 3.61186 42.5273 3.61186H31.7771C31.3075 3.61186 30.9233 3.9961 30.9233 4.46572V18.0849H28.5495V2.7153C28.5495 1.22103 27.3285 0 25.8342 0H5.90498C4.41071 0 3.18968 1.22103 3.18968 2.7153V18.0849H1.35387C0.88424 18.0849 0.5 18.4691 0.5 18.9388V28.6728C0.5 29.1425 0.88424 29.5267 1.35387 29.5267H8.01403C8.43242 32.6092 11.0794 35 14.2729 35C17.4663 35 20.1133 32.6092 20.5317 29.5267H34.7486C35.167 32.6092 37.814 35 41.0074 35C44.2009 35 46.8479 32.6092 47.2663 29.5267H50.8781C51.3478 29.5267 51.732 29.1425 51.732 28.6728V18.9388C51.732 18.6911 51.6295 18.4606 51.4502 18.2984L47.2407 14.5499ZM41.9382 5.32813L45.2853 14.1998H32.631V5.32813H41.9382ZM20.4976 27.5884C20.4805 27.503 20.4719 27.4177 20.4549 27.3323C20.4293 27.2127 20.3951 27.0932 20.3609 26.9822C20.3439 26.9053 20.3182 26.8285 20.3012 26.7516C20.2585 26.6236 20.2072 26.4955 20.1646 26.3759C20.1389 26.3162 20.1219 26.2564 20.0962 26.1966C20.0194 26.0173 19.934 25.838 19.8401 25.6672V25.6587C19.7462 25.4879 19.6437 25.3257 19.5412 25.1635C19.5071 25.1122 19.4644 25.061 19.4302 25.0098C19.3534 24.8988 19.2765 24.7963 19.1911 24.6938L19.046 24.5231C18.9691 24.4291 18.8923 24.3437 18.8069 24.2584L18.6361 24.0876L18.602 24.0534H30.9489V27.819H20.5403C20.5317 27.7421 20.5146 27.6653 20.4976 27.5884ZM16.3478 1.71627V8.1715L14.085 6.89924C13.8289 6.75409 13.5044 6.75409 13.2482 6.89924L10.9855 8.1715V1.71627H16.3478ZM4.90595 2.7153C4.90595 2.16028 5.3585 1.70773 5.91352 1.70773H9.29483V9.62308C9.29573 9.77209 9.33561 9.91827 9.4105 10.0471C9.4854 10.1759 9.59271 10.2829 9.72176 10.3574C9.85838 10.4343 10.0035 10.4769 10.1487 10.4769C10.2939 10.4769 10.439 10.4428 10.5671 10.3659L13.6837 8.61552L16.8003 10.3659C17.065 10.5111 17.3895 10.5111 17.6456 10.3574C17.7747 10.2829 17.882 10.1759 17.9569 10.0471C18.0318 9.91827 18.0717 9.77209 18.0726 9.62308V1.70773H25.8513C26.4063 1.70773 26.8589 2.16028 26.8589 2.7153V18.0849H4.90595V2.7153ZM4.05209 19.7926H30.9318V22.3457H2.20773V19.7926H4.05209ZM2.20773 24.062H9.96084L9.92669 24.0961C9.86692 24.1474 9.80715 24.2071 9.75592 24.2669C9.67053 24.3523 9.59368 24.4462 9.51683 24.5316C9.4656 24.5914 9.41437 24.6426 9.37168 24.7024C9.28629 24.8048 9.20944 24.9158 9.13259 25.0183C9.09844 25.0695 9.05574 25.1208 9.02159 25.172C8.91059 25.3342 8.81666 25.4965 8.72274 25.6672V25.6758C8.62881 25.8465 8.54342 26.0259 8.46658 26.2052C8.44096 26.2649 8.42388 26.3247 8.39827 26.3845C8.34704 26.5126 8.30434 26.6321 8.26165 26.7602C8.23603 26.837 8.21896 26.9139 8.20188 26.9907C8.16772 27.1103 8.13357 27.2213 8.10795 27.3408C8.09088 27.4262 8.0738 27.5116 8.06526 27.597C8.04818 27.6738 8.03111 27.7507 8.02257 27.8361H2.20773V24.062ZM14.2729 33.2923C11.7283 33.2923 9.65345 31.2174 9.65345 28.6728C9.65345 26.1283 11.7283 24.0534 14.2729 24.0534C16.8174 24.0534 18.8923 26.1283 18.8923 28.6728C18.8923 31.2174 16.8174 33.2923 14.2729 33.2923ZM41.0074 33.2923C38.4629 33.2923 36.388 31.2174 36.388 28.6728C36.388 26.1283 38.4629 24.0534 41.0074 24.0534C43.552 24.0534 45.6269 26.1283 45.6269 28.6728C45.6269 31.2174 43.552 33.2923 41.0074 33.2923ZM50.0243 27.8275H47.2663C46.8479 24.7451 44.2009 22.3542 41.0074 22.3542C37.814 22.3542 35.167 24.7451 34.7486 27.8275H32.631V15.9075H46.1904L50.0243 19.323V27.8275Z" fill="#FF131D"></path><path d="M41.008 24.9756C38.9672 24.9756 37.3107 26.6321 37.3107 28.6728C37.3107 30.7136 38.9672 32.3701 41.008 32.3701C43.0487 32.3701 44.7052 30.7136 44.7052 28.6728C44.7052 26.6321 43.0487 24.9756 41.008 24.9756ZM41.008 30.6709C39.9065 30.6709 39.0185 29.7743 39.0185 28.6814C39.0185 27.5884 39.915 26.6918 41.008 26.6918C42.1009 26.6918 42.9975 27.5884 42.9975 28.6814C42.9975 29.7743 42.1095 30.6709 41.008 30.6709ZM14.2734 24.9756C12.2327 24.9756 10.5762 26.6321 10.5762 28.6728C10.5762 30.7136 12.2327 32.3701 14.2734 32.3701C16.3142 32.3701 17.9707 30.7136 17.9707 28.6728C17.9707 26.6321 16.3142 24.9756 14.2734 24.9756ZM14.2734 30.6709C13.1719 30.6709 12.2839 29.7743 12.2839 28.6814C12.2839 27.5884 13.1805 26.6918 14.2734 26.6918C15.3749 26.6918 16.2629 27.5884 16.2629 28.6814C16.2629 29.7743 15.3749 30.6709 14.2734 30.6709ZM24.8187 3.95337C24.349 3.95337 23.9648 4.33761 23.9648 4.80724V10.3744C23.9648 10.8441 24.349 11.2283 24.8187 11.2283C25.2883 11.2283 25.6725 10.8441 25.6725 10.3744V4.80724C25.6725 4.33761 25.2968 3.95337 24.8187 3.95337ZM24.8187 12.159C24.349 12.159 23.9648 12.5433 23.9648 13.0129V14.1656C23.9648 14.6352 24.349 15.0195 24.8187 15.0195C25.2883 15.0195 25.6725 14.6352 25.6725 14.1656V13.0129C25.6725 12.5433 25.2968 12.159 24.8187 12.159Z" fill="#FF131D"></path></svg>