<svg xmlns="http://www.w3.org/2000/svg" width="33" height="40" viewBox="0 0 33 40" fill="none"><path d="M22.6437 3.11401C22.214 3.11401 21.8652 3.46278 21.8652 3.89252C21.8652 4.32225 22.214 4.67102 22.6437 4.67102C23.0735 4.67102 23.4222 4.32225 23.4222 3.89252C23.4222 3.46278 23.0735 3.11401 22.6437 3.11401Z" fill="white"></path><path d="M10.1887 3.11401C9.75893 3.11401 9.41016 3.46278 9.41016 3.89252C9.41016 4.32225 9.75893 4.67102 10.1887 4.67102C10.6184 4.67102 10.9672 4.32225 10.9672 3.89252C10.9672 3.46278 10.6184 3.11401 10.1887 3.11401Z" fill="white"></path><path d="M32.6079 38.5425L27.4564 33.1606C29.5375 33.0861 31.2079 31.3708 31.2079 29.2717V6.17119C31.2079 4.91336 30.7683 3.68504 29.9698 2.71246C29.1709 1.74011 28.0515 1.07005 26.8185 0.826147C24.0554 0.277925 21.2265 0 18.4102 0H14.2973C11.6187 0 8.82866 0.256594 6.00534 0.820853C3.46703 1.32867 1.62478 3.57629 1.62478 6.16496V29.2717C1.62478 31.3884 3.32348 33.1148 5.42909 33.162L0.21943 38.5392C0.00183885 38.7637 -0.0602854 39.0966 0.0617059 39.3844C0.183542 39.6723 0.465905 39.8593 0.778551 39.8593H6.34484C6.59443 39.8593 6.82884 39.7397 6.97528 39.5376L9.33679 36.2782H23.5652L25.9267 39.5377C26.0731 39.7397 26.3076 39.8593 26.5571 39.8593H32.0456C32.3573 39.8593 32.639 39.6733 32.7615 39.3866C32.8839 39.0998 32.8235 38.7678 32.6079 38.5425ZM3.18179 29.2717V6.16496C3.18179 4.31579 4.49769 2.71036 6.31059 2.34757C8.85186 1.83968 11.5371 1.55701 14.2973 1.55701H18.4101C21.125 1.55701 23.8519 1.82489 26.5157 2.35334C27.3965 2.52764 28.196 3.00627 28.7665 3.70061C29.3368 4.39527 29.6508 5.27264 29.6508 6.17111V29.2717C29.6508 30.5595 28.6031 31.6072 27.3153 31.6072H5.51722C4.2295 31.6072 3.18179 30.5595 3.18179 29.2717ZM5.94758 38.3023H2.61675L7.59473 33.1642H9.67037L5.94758 38.3023ZM10.4649 34.7212L11.593 33.1642H21.309L22.437 34.7212H10.4649ZM26.9544 38.3023L23.2317 33.1642H25.3045L30.2227 38.3023H26.9544Z" fill="white"></path><path d="M27.3149 6.22803H5.51678C5.08689 6.22803 4.73828 6.57664 4.73828 7.00653V19.9297C4.73828 20.3596 5.08689 20.7082 5.51678 20.7082H27.3149C27.7447 20.7082 28.0934 20.3596 28.0934 19.9297V7.00653C28.0934 6.57664 27.7447 6.22803 27.3149 6.22803ZM15.6373 19.1512H6.29529V7.78503H15.6373V19.1512ZM26.5364 19.1512H17.1943V7.78503H26.5364V19.1512Z" fill="white"></path><path d="M19.53 3.11401H13.3019C12.8721 3.11401 12.5234 3.46263 12.5234 3.89252C12.5234 4.32241 12.8721 4.67102 13.3019 4.67102H19.53C19.9599 4.67102 20.3085 4.32241 20.3085 3.89252C20.3085 3.46263 19.9599 3.11401 19.53 3.11401Z" fill="white"></path><path d="M24.9792 23.0437C23.2622 23.0437 21.8652 24.4406 21.8652 26.1577C21.8652 27.8748 23.2622 29.2717 24.9792 29.2717C26.6963 29.2717 28.0933 27.8748 28.0933 26.1577C28.0933 24.4406 26.6963 23.0437 24.9792 23.0437ZM24.9792 27.7147C24.1207 27.7147 23.4222 27.0162 23.4222 26.1577C23.4222 25.2992 24.1207 24.6007 24.9792 24.6007C25.8378 24.6007 26.5363 25.2992 26.5363 26.1577C26.5363 27.0162 25.8378 27.7147 24.9792 27.7147Z" fill="white"></path><path d="M7.85229 23.0437C6.13523 23.0437 4.73828 24.4406 4.73828 26.1577C4.73828 27.8748 6.1353 29.2717 7.85229 29.2717C9.56936 29.2717 10.9663 27.8748 10.9663 26.1577C10.9663 24.4406 9.56936 23.0437 7.85229 23.0437ZM7.85229 27.7147C6.99376 27.7147 6.29529 27.0162 6.29529 26.1577C6.29529 25.2992 6.99376 24.6007 7.85229 24.6007C8.71082 24.6007 9.4093 25.2992 9.4093 26.1577C9.4093 27.0162 8.71082 27.7147 7.85229 27.7147Z" fill="white"></path><path d="M19.53 23.8223H13.3019C12.8721 23.8223 12.5234 24.1709 12.5234 24.6008C12.5234 25.0307 12.8721 25.3793 13.3019 25.3793H19.53C19.9599 25.3793 20.3085 25.0307 20.3085 24.6008C20.3085 24.1709 19.9599 23.8223 19.53 23.8223Z" fill="white"></path><path d="M19.53 26.9363H13.3019C12.8721 26.9363 12.5234 27.2849 12.5234 27.7148C12.5234 28.1447 12.8721 28.4933 13.3019 28.4933H19.53C19.9599 28.4933 20.3085 28.1447 20.3085 27.7148C20.3085 27.2849 19.9599 26.9363 19.53 26.9363Z" fill="white"></path></svg>